<svg width="44" height="39" viewBox="0 0 44 39" fill="none" xmlns="http://www.w3.org/2000/svg">
<path d="M43.3206 1.49218C42.7831 0.816632 41.9781 0.444702 41.0536 0.444702C40.5511 0.444702 40.0187 0.553383 39.4715 0.768329L2.22633 15.3809C0.249764 16.1561 -0.0164409 17.3195 0.000679409 17.944C0.0177997 18.5685 0.347786 19.7147 2.36396 20.374C2.37605 20.3778 2.38813 20.3816 2.40022 20.385L10.1259 22.6573L14.3039 34.9365C14.8736 36.6105 16.1522 37.6504 17.6414 37.6504C18.5803 37.6504 19.5038 37.2461 20.3121 36.4815L25.0907 31.9594L32.0218 37.6953C32.0225 37.696 32.0235 37.6963 32.0241 37.697L32.0899 37.7515C32.096 37.7563 32.1024 37.7615 32.1084 37.7664C32.8788 38.3805 33.7197 38.7048 34.5412 38.7051H34.5415C36.1465 38.7051 37.4244 37.4841 37.7967 35.5948L43.8993 4.6246C44.1444 3.3815 43.9389 2.26916 43.3206 1.49218ZM12.7104 22.2257L27.6155 14.3997L18.3346 24.5353C18.1825 24.7012 18.0747 24.9044 18.0217 25.1256L16.2321 32.5759L12.7104 22.2257ZM18.5655 34.5322C18.5038 34.5905 18.4417 34.6426 18.3796 34.6905L20.0399 27.7791L23.0601 30.2788L18.5655 34.5322ZM41.3725 4.09844L35.27 35.069C35.2112 35.3654 35.0236 36.0551 34.5412 36.0551C34.3028 36.0551 34.0034 35.9215 33.6969 35.679L25.843 29.1795C25.842 29.1785 25.8407 29.1775 25.8393 29.1768L21.1661 25.3091L34.5875 10.6517C35.0172 10.1825 35.0561 9.46382 34.6798 8.94837C34.3032 8.43291 33.6207 8.27075 33.0624 8.56401L10.9879 20.1546L3.1572 17.8519L40.391 3.24383C40.7055 3.12032 40.9251 3.09444 41.0536 3.09444C41.1325 3.09444 41.2728 3.1041 41.3249 3.17C41.3933 3.25591 41.4806 3.54883 41.3725 4.09844Z" fill="#2352DE"/>
</svg>
